name rise30.6535peak61.5555fall82.9339.mot
datacolumns 19
datarows 30
range 14.98993700000000 15.03828300000000
endheader
time	ground_force1_vx	ground_force1_vy	ground_force1_vz	ground_force1_px	ground_force1_py	ground_force1_pz	ground_force2_vx	ground_force2_vy	ground_force2_vz	ground_force2_px	ground_force2_py	ground_force2_pz	ground_torque1_x	ground_torque1_y	ground_torque1_z	ground_torque2_x	ground_torque2_y	ground_torque2_z	
14.98993700000000	59.06188900000000	770.91314599999998	51.72487800000000	0.37312000000000	0.00000000000000	0.09920100000000	0.00000000000000	0.00000000000000	0.00000000000000	0.00000000000000	0.00000000000000	0.00000000000000	0.00000000000000	25.77105200000000	0.00000000000000	0.00000000000000	0.00000000000000	0.00000000000000	
14.99160900000000	58.30440900000000	772.26249099999995	51.78746800000000	0.37206400000000	0.00000000000000	0.09922400000000	0.00000000000000	0.00000000000000	0.00000000000000	0.00000000000000	0.00000000000000	0.00000000000000	0.00000000000000	25.83406500000000	0.00000000000000	0.00000000000000	0.00000000000000	0.00000000000000	
14.99328100000000	57.55014200000000	773.49729200000002	51.84031100000000	0.37101600000000	0.00000000000000	0.09924700000000	0.00000000000000	0.00000000000000	0.00000000000000	0.00000000000000	0.00000000000000	0.00000000000000	0.00000000000000	25.89095200000000	0.00000000000000	0.00000000000000	0.00000000000000	0.00000000000000	
14.99493900000000	56.80007600000000	774.61915999999997	51.88357300000000	0.36997800000000	0.00000000000000	0.09927100000000	0.00000000000000	0.00000000000000	0.00000000000000	0.00000000000000	0.00000000000000	0.00000000000000	0.00000000000000	25.94177800000000	0.00000000000000	0.00000000000000	0.00000000000000	0.00000000000000	
14.99661000000000	56.05513500000000	775.62975500000005	51.91739900000000	0.36895000000000	0.00000000000000	0.09929500000000	0.00000000000000	0.00000000000000	0.00000000000000	0.00000000000000	0.00000000000000	0.00000000000000	0.00000000000000	25.98659200000000	0.00000000000000	0.00000000000000	0.00000000000000	0.00000000000000	
14.99828400000000	55.31618400000000	776.53078400000004	51.94191200000000	0.36793200000000	0.00000000000000	0.09931900000000	0.00000000000000	0.00000000000000	0.00000000000000	0.00000000000000	0.00000000000000	0.00000000000000	0.00000000000000	26.02542900000000	0.00000000000000	0.00000000000000	0.00000000000000	0.00000000000000	
14.99993900000000	54.58402700000000	777.32401000000004	51.95721900000000	0.36692300000000	0.00000000000000	0.09934400000000	0.00000000000000	0.00000000000000	0.00000000000000	0.00000000000000	0.00000000000000	0.00000000000000	0.00000000000000	26.05831000000000	0.00000000000000	0.00000000000000	0.00000000000000	0.00000000000000	
15.00160200000000	53.85940600000000	778.01125000000002	51.96340900000000	0.36592400000000	0.00000000000000	0.09936800000000	0.00000000000000	0.00000000000000	0.00000000000000	0.00000000000000	0.00000000000000	0.00000000000000	0.00000000000000	26.08524800000000	0.00000000000000	0.00000000000000	0.00000000000000	0.00000000000000	
15.00327200000000	53.14300700000000	778.59438100000000	51.96056000000000	0.36493500000000	0.00000000000000	0.09939200000000	0.00000000000000	0.00000000000000	0.00000000000000	0.00000000000000	0.00000000000000	0.00000000000000	0.00000000000000	26.10624400000000	0.00000000000000	0.00000000000000	0.00000000000000	0.00000000000000	
15.00493400000000	52.43545700000000	779.07534199999998	51.94873900000000	0.36395600000000	0.00000000000000	0.09941700000000	0.00000000000000	0.00000000000000	0.00000000000000	0.00000000000000	0.00000000000000	0.00000000000000	0.00000000000000	26.12129600000000	0.00000000000000	0.00000000000000	0.00000000000000	0.00000000000000	
15.00660900000000	51.73732900000000	779.45613700000001	51.92800600000000	0.36298600000000	0.00000000000000	0.09944100000000	0.00000000000000	0.00000000000000	0.00000000000000	0.00000000000000	0.00000000000000	0.00000000000000	0.00000000000000	26.13039300000000	0.00000000000000	0.00000000000000	0.00000000000000	0.00000000000000	
15.00827700000000	51.04913900000000	779.73883300000000	51.89841800000000	0.36202500000000	0.00000000000000	0.09946400000000	0.00000000000000	0.00000000000000	0.00000000000000	0.00000000000000	0.00000000000000	0.00000000000000	0.00000000000000	26.13352300000000	0.00000000000000	0.00000000000000	0.00000000000000	0.00000000000000	
15.00994100000000	50.37135300000000	779.92556700000000	51.86002700000000	0.36107400000000	0.00000000000000	0.09948800000000	0.00000000000000	0.00000000000000	0.00000000000000	0.00000000000000	0.00000000000000	0.00000000000000	0.00000000000000	26.13067200000000	0.00000000000000	0.00000000000000	0.00000000000000	0.00000000000000	
15.01161400000000	49.70438300000000	780.01854300000002	51.81289000000000	0.36013100000000	0.00000000000000	0.09951100000000	0.00000000000000	0.00000000000000	0.00000000000000	0.00000000000000	0.00000000000000	0.00000000000000	0.00000000000000	26.12182600000000	0.00000000000000	0.00000000000000	0.00000000000000	0.00000000000000	
15.01327700000000	49.04859500000000	780.02003400000001	51.75706300000000	0.35919700000000	0.00000000000000	0.09953300000000	0.00000000000000	0.00000000000000	0.00000000000000	0.00000000000000	0.00000000000000	0.00000000000000	0.00000000000000	26.10697200000000	0.00000000000000	0.00000000000000	0.00000000000000	0.00000000000000	
15.01494300000000	48.40430600000000	779.93238199999996	51.69261000000000	0.35827100000000	0.00000000000000	0.09955500000000	0.00000000000000	0.00000000000000	0.00000000000000	0.00000000000000	0.00000000000000	0.00000000000000	0.00000000000000	26.08610500000000	0.00000000000000	0.00000000000000	0.00000000000000	0.00000000000000	
15.01661500000000	47.77178700000000	779.75799900000004	51.61960400000000	0.35735200000000	0.00000000000000	0.09957600000000	0.00000000000000	0.00000000000000	0.00000000000000	0.00000000000000	0.00000000000000	0.00000000000000	0.00000000000000	26.05922100000000	0.00000000000000	0.00000000000000	0.00000000000000	0.00000000000000	
15.01828300000000	47.15126900000000	779.49936300000002	51.53812600000000	0.35644100000000	0.00000000000000	0.09959700000000	0.00000000000000	0.00000000000000	0.00000000000000	0.00000000000000	0.00000000000000	0.00000000000000	0.00000000000000	26.02632600000000	0.00000000000000	0.00000000000000	0.00000000000000	0.00000000000000	
15.01993600000000	46.54293700000000	779.15902000000006	51.44827000000000	0.35553700000000	0.00000000000000	0.09961700000000	0.00000000000000	0.00000000000000	0.00000000000000	0.00000000000000	0.00000000000000	0.00000000000000	0.00000000000000	25.98743300000000	0.00000000000000	0.00000000000000	0.00000000000000	0.00000000000000	
15.02160100000000	45.94694100000000	778.73957900000005	51.35014600000000	0.35463900000000	0.00000000000000	0.09963600000000	0.00000000000000	0.00000000000000	0.00000000000000	0.00000000000000	0.00000000000000	0.00000000000000	0.00000000000000	25.94256400000000	0.00000000000000	0.00000000000000	0.00000000000000	0.00000000000000	
15.02328300000000	45.36339000000000	778.24371399999995	51.24387500000000	0.35374800000000	0.00000000000000	0.09965400000000	0.00000000000000	0.00000000000000	0.00000000000000	0.00000000000000	0.00000000000000	0.00000000000000	0.00000000000000	25.89175400000000	0.00000000000000	0.00000000000000	0.00000000000000	0.00000000000000	
15.02494000000000	44.79236100000000	777.67415800000003	51.12959800000000	0.35286200000000	0.00000000000000	0.09967100000000	0.00000000000000	0.00000000000000	0.00000000000000	0.00000000000000	0.00000000000000	0.00000000000000	0.00000000000000	25.83504800000000	0.00000000000000	0.00000000000000	0.00000000000000	0.00000000000000	
15.02660500000000	44.23389600000000	777.03369999999995	51.00747300000000	0.35198100000000	0.00000000000000	0.09968700000000	0.00000000000000	0.00000000000000	0.00000000000000	0.00000000000000	0.00000000000000	0.00000000000000	0.00000000000000	25.77250500000000	0.00000000000000	0.00000000000000	0.00000000000000	0.00000000000000	
15.02827900000000	43.68800400000000	776.32518500000003	50.87767700000000	0.35110500000000	0.00000000000000	0.09970200000000	0.00000000000000	0.00000000000000	0.00000000000000	0.00000000000000	0.00000000000000	0.00000000000000	0.00000000000000	25.70419800000000	0.00000000000000	0.00000000000000	0.00000000000000	0.00000000000000	
15.02994000000000	43.15466800000000	775.55150600000002	50.74040600000000	0.35023200000000	0.00000000000000	0.09971500000000	0.00000000000000	0.00000000000000	0.00000000000000	0.00000000000000	0.00000000000000	0.00000000000000	0.00000000000000	25.63021200000000	0.00000000000000	0.00000000000000	0.00000000000000	0.00000000000000	
15.03160900000000	42.63384100000000	774.71560299999999	50.59587500000000	0.34936400000000	0.00000000000000	0.09972800000000	0.00000000000000	0.00000000000000	0.00000000000000	0.00000000000000	0.00000000000000	0.00000000000000	0.00000000000000	25.55064900000000	0.00000000000000	0.00000000000000	0.00000000000000	0.00000000000000	
15.03327600000000	42.12545000000000	773.82045700000003	50.44431900000000	0.34849800000000	0.00000000000000	0.09973900000000	0.00000000000000	0.00000000000000	0.00000000000000	0.00000000000000	0.00000000000000	0.00000000000000	0.00000000000000	25.46562500000000	0.00000000000000	0.00000000000000	0.00000000000000	0.00000000000000	
15.03493700000000	41.62940100000000	772.86908300000005	50.28599400000000	0.34763500000000	0.00000000000000	0.09974900000000	0.00000000000000	0.00000000000000	0.00000000000000	0.00000000000000	0.00000000000000	0.00000000000000	0.00000000000000	25.37527000000000	0.00000000000000	0.00000000000000	0.00000000000000	0.00000000000000	
15.03660200000000	41.14557300000000	771.86453200000005	50.12117400000000	0.34677400000000	0.00000000000000	0.09975700000000	0.00000000000000	0.00000000000000	0.00000000000000	0.00000000000000	0.00000000000000	0.00000000000000	0.00000000000000	25.27973000000000	0.00000000000000	0.00000000000000	0.00000000000000	0.00000000000000	
15.03828300000000	40.67382900000000	770.80987800000003	49.95015200000000	0.34591500000000	0.00000000000000	0.09976400000000	0.00000000000000	0.00000000000000	0.00000000000000	0.00000000000000	0.00000000000000	0.00000000000000	0.00000000000000	25.17916500000000	0.00000000000000	0.00000000000000	0.00000000000000	0.00000000000000	
